<?xml version="1.0" encoding="utf-8"?>
<!-- Generator: Adobe Illustrator 17.0.0, SVG Export Plug-In . SVG Version: 6.00 Build 0)  -->
<!DOCTYPE svg PUBLIC "-//W3C//DTD SVG 1.1//EN" "http://www.w3.org/Graphics/SVG/1.1/DTD/svg11.dtd">
<svg version="1.1" id="Layer_1" xmlns="http://www.w3.org/2000/svg" xmlns:xlink="http://www.w3.org/1999/xlink" x="0px" y="0px"
	 width="1600px" height="1000px" viewBox="0 0 1600 1000" enable-background="new 0 0 1600 1000" xml:space="preserve">
<g>
	<path fill="#92A8D1" d="M549.97,434.629c29.694,0,45.007,14.006,45.007,38.471c0,20.169-10.271,33.055-30.44,37.164l30.627,51.357
		c1.307,2.241,0.187,3.735-1.681,3.735h-11.018c-2.801,0-3.175,0-4.669-2.615l-30.44-51.17h-20.169c-3.735,0-3.735,0-3.735,3.735
		v46.315c0,2.801-0.934,3.735-3.735,3.735h-8.59c-2.801,0-3.735-0.934-3.735-3.735V438.364c0-2.801,0.934-3.735,3.735-3.735H549.97z
		 M523.452,492.896c0,3.735,0,3.735,3.735,3.735h23.904c21.29,0,28.2-10.645,28.2-23.531c0-12.886-6.91-23.531-28.2-23.531h-23.904
		c-3.735,0-3.735,0-3.735,3.735V492.896z"/>
	<path fill="#92A8D1" d="M637.743,546.68c0,3.735,0,3.735,3.735,3.735h54.158c2.801,0,3.735,0.934,3.735,3.735v7.47
		c0,2.801-0.934,3.735-3.735,3.735h-70.219c-2.801,0-3.735-0.934-3.735-3.735V438.364c0-2.801,0.934-3.735,3.735-3.735h70.219
		c2.801,0,3.735,0.934,3.735,3.735v7.47c0,2.801-0.934,3.735-3.735,3.735h-54.158c-3.735,0-3.735,0-3.735,3.735v31.935
		c0,3.735,0,3.735,3.735,3.735h44.821c2.801,0,3.735,0.934,3.735,3.735v7.47c0,2.801-0.934,3.735-3.735,3.735h-44.821
		c-3.735,0-3.735,0-3.735,3.735V546.68z"/>
	<path fill="#92A8D1" d="M718.976,549.108c-1.681-1.494-1.494-2.801-0.187-4.295l5.976-6.91c1.308-1.494,2.428-1.868,4.295-0.187
		c19.796,18.862,59.387,18.675,59.387-5.416c0-27.079-67.231-28.76-65.923-67.978c0.56-16.434,13.633-31.935,42.58-30.44
		c19.422,0.934,34.362,10.458,34.362,10.458c1.307,0.934,1.681,1.681,0.747,3.362l-4.482,8.59c-0.934,1.494-2.054,1.121-3.361,0.374
		c-23.157-12.139-53.785-11.205-53.785,9.338c0,25.024,65.924,27.639,65.924,65.363c0,23.157-20.543,36.23-45.007,34.736
		C735.597,564.608,723.832,553.403,718.976,549.108z"/>
	<path fill="#92A8D1" d="M820.567,434.629h81.051c2.801,0,3.734,0.934,3.734,3.735v7.47c0,2.801-0.934,3.735-3.734,3.735h-28.761
		c-3.734,0-3.734,0-3.734,3.735v108.316c0,2.801-0.935,3.735-3.735,3.735h-8.591c-2.801,0-3.735-0.934-3.735-3.735V453.304
		c0-3.735,0-3.735-3.734-3.735h-28.76c-2.802,0-3.735-0.934-3.735-3.735v-7.47C816.832,435.562,817.766,434.629,820.567,434.629z"/>
	<path fill="#777777" d="M927.759,563.301V436.683c0-1.681,0.374-2.054,1.868-2.054s1.867,0.374,1.867,2.054v91.509
		c0,1.121,1.121,1.307,1.681,0.56l43.514-54.718c1.681-2.054,2.241-2.054,3.735-2.054c1.307,0,1.867,0.934,0.747,2.241
		l-28.573,35.856c-0.747,0.934-0.561,1.308,0,2.241l30.627,50.796c0.934,1.494,0.187,2.241-0.934,2.241
		c-1.494,0-1.867,0-3.175-2.054l-29.134-48.182c-0.56-0.934-1.307-0.747-1.867,0l-15.127,19.049
		c-1.494,2.054-1.494,2.614-1.494,6.35v22.784c0,1.681-0.373,2.054-1.867,2.054S927.759,564.982,927.759,563.301z"/>
	<path fill="#777777" d="M1011.795,449.195c2.428,0,4.481,2.055,4.481,4.482s-2.054,4.482-4.481,4.482s-4.482-2.054-4.482-4.482
		S1009.367,449.195,1011.795,449.195z M1009.927,563.301v-89.268c0-1.681,0.374-2.054,1.868-2.054s1.867,0.374,1.867,2.054v89.268
		c0,1.681-0.373,2.054-1.867,2.054S1009.927,564.982,1009.927,563.301z"/>
	<path fill="#777777" d="M1060.722,479.263h18.861c1.681,0,2.055,0.374,2.055,1.681s-0.374,1.681-2.055,1.681h-18.861
		c-1.682,0-1.868,0.187-1.868,1.868v50.423v0.747v9.151c0,11.579,8.964,17.742,16.248,17.742c6.35,0,10.458-2.428,14.192-6.35
		c1.121-1.121,1.682-1.307,2.615-0.374s0.934,1.494,0,2.615c-3.175,3.735-8.965,7.657-16.808,7.657
		c-9.524,0-19.982-7.844-19.982-21.103v-9.338v-0.747v-50.423c0-1.681-0.188-1.868-1.868-1.868h-9.897
		c-1.681,0-2.055-0.374-2.055-1.681s0.374-1.681,2.055-1.681h9.897c1.681,0,1.868-0.187,1.868-1.868v-23.344
		c0-1.681,0.373-2.055,1.867-2.055s1.867,0.374,1.867,2.055v23.344C1058.854,479.076,1059.04,479.263,1060.722,479.263z"/>
</g>
<rect x="507" y="433" display="none" fill="#777777" width="585" height="133"/>
</svg>
